<svg xmlns="http://www.w3.org/2000/svg" width="393.861" height="173.38" viewBox="0 0 393.861 173.38">
  <g id="alina-logo" transform="translate(-106.34 -213.52)">
    <text id="TM" transform="translate(473.201 241.651)" fill="#004c7e" font-size="17.71" font-family="SegoeUI-Semibold, Segoe UI" font-weight="600"><tspan x="0" y="0">TM</tspan></text>
    <path id="Path_1" data-name="Path 1" d="M228.91,226.17V345.9H203.02V213.52h13.43A12.711,12.711,0,0,1,228.91,226.17Z" fill="#00517f"/>
    <path id="Path_2" data-name="Path 2" d="M260.84,269.25c8.37,0,12.46-4.8,12.46,3.57V345.9H247.4V269.25Z" fill="#000054"/>
    <path id="Path_3" data-name="Path 3" d="M362.46,345.91c-8.57-.58-12.85-4.67-12.85-12.85V280.1c-.58-10.71-6.42-15.96-17.91-15.96s-17.33,5.26-17.52,15.96v65.8H287.9V285.35c0-29.4,14.8-44,44.19-44s43.8,14.6,43.61,44V345.9H362.46Z" fill="#004c7e"/>
    <path id="Path_4" data-name="Path 4" d="M414.04,269.78H388.15c3.12-19.08,16.55-28.42,40.3-28.42,28.42,0,42.83,9.35,43.41,28.42v35.04c0,28.42-17.13,41.08-44.97,43.02-24.72,1.95-41.86-9.54-41.86-32.32.58-24.73,18.5-31.34,44.58-33.87,11.1-1.36,16.74-4.67,16.74-10.32-.58-5.84-6.04-8.76-16.74-8.76C420.47,262.58,415.41,264.92,414.04,269.78Zm32.71,33.88v-9.54a112.389,112.389,0,0,1-20.64,6.23c-10.32,1.95-15.58,6.81-15.58,14.41.58,8.18,4.87,12.07,13.04,12.07C437.99,326.83,446.75,318.26,446.75,303.66Z" fill="#29abe2"/>
    <path id="Path_5" data-name="Path 5" d="M135.35,269.78H109.46c3.12-19.08,16.55-28.42,40.3-28.42,28.42,0,42.83,9.35,43.41,28.42v35.04c0,28.42-17.13,41.08-44.97,43.02-24.72,1.95-41.86-9.54-41.86-32.32.58-24.73,18.5-31.34,44.58-33.87,11.1-1.36,16.74-4.67,16.74-10.32-.58-5.84-6.04-8.76-16.74-8.76C141.77,262.58,136.71,264.92,135.35,269.78Zm32.71,33.88v-9.54a112.384,112.384,0,0,1-20.64,6.23c-10.32,1.95-15.58,6.81-15.58,14.41.58,8.18,4.87,12.07,13.04,12.07C159.3,326.83,168.06,318.26,168.06,303.66Z" fill="#000054"/>
    <text id="SOFTWARES" transform="translate(107.86 378.9)" fill="#00517f" font-size="30.81" font-family="SegoeUI-Semibold, Segoe UI" font-weight="600" letter-spacing="0.77em"><tspan x="0" y="0">SOFTWARES</tspan></text>
    <path id="Path_6" data-name="Path 6" d="M238.01,244.25l17.46,1.19-9.13,16.67,69.07-47.04Z" fill="#29abe2"/>
    <path id="Path_7" data-name="Path 7" d="M247.4,269.25l26.33-19.65v39.89" fill="#000054"/>
    <path id="Path_8" data-name="Path 8" d="M167.03,287.36s-29.56,8.45-35.89,14.78-8.45,24.28,0,29.56,40.11,10.56,44.34-1.06,3.17-41.17,3.17-41.17" fill="#000054"/>
    <path id="Path_9" data-name="Path 9" d="M152.18,285.34l5.5,10.3,44.76-17.08-43.85,33.08,2.14,27.93L143.8,318.44l-21.39,16.37,13.88-22.8-12.16-10.42,20.73-3.68Z" fill="#fff"/>
  </g>
</svg>
